<svg xmlns="http://www.w3.org/2000/svg" version="1.1" xmlns:xlink="http://www.w3.org/1999/xlink" width="32" height="32" x="0" y="0" viewBox="0 0 24 24" style="enable-background:new 0 0 512 512" xml:space="preserve" fill-rule="evenodd"><g><path d="M21.74 9.121A.75.75 0 0 0 21 8.25H3a.75.75 0 0 0-.74.871l1.525 9.323a2.75 2.75 0 0 0 2.714 2.306h11.002a2.75 2.75 0 0 0 2.714-2.306zm-1.623.629-1.383 8.452a1.25 1.25 0 0 1-1.233 1.048H6.499a1.25 1.25 0 0 1-1.233-1.048L3.883 9.75z" fill="#000000" opacity="1" data-original="#000000"></path><path d="m18.643 8.614-3-5a.75.75 0 0 0-1.286.772l3 5a.75.75 0 0 0 1.286-.772zM6.643 9.386l3-5a.75.75 0 0 0-1.286-.772l-3 5a.75.75 0 0 0 1.286.772zM11.25 12.5v4a.75.75 0 0 0 1.5 0v-4a.75.75 0 0 0-1.5 0zM7.25 12.5v4a.75.75 0 0 0 1.5 0v-4a.75.75 0 0 0-1.5 0zM15.25 12.5v4a.75.75 0 0 0 1.5 0v-4a.75.75 0 0 0-1.5 0z" fill="#000000" opacity="1" data-original="#000000"></path><path d="M22 8.25H2a.75.75 0 0 0 0 1.5h20a.75.75 0 0 0 0-1.5z" fill="#000000" opacity="1" data-original="#000000"></path></g></svg>