<svg xmlns="http://www.w3.org/2000/svg" xmlns:xlink="http://www.w3.org/1999/xlink" version="1.1" x="0px" y="0px" viewBox="7.574411869049072 4.796351432800293 84.88780975341797 90.99225616455078" xml:space="preserve" fill="#ffd312" width="32" height="32"><g fill="#ffd312"><g fill="#ffd312"><path d="M49,24.6c-13.1-4.4-27,5.3-34.7,15.3C6.5,50,5.6,63.1,11,74.6c11.4,24.3,49.3,28.6,66.5,8.2c4.5-5.4,7.4-12.1,9-18.9    c1.1-4.9,2.3-12.3-3.1-15c-1.1-0.6-2.3,0.8-1.4,1.8c2.2,2.4,0.2,7.5-0.4,10.3c-0.7,3-1.4,6-2.5,8.8c-2.6,6.6-6.9,12.3-13.1,15.9    c-11.5,6.6-27.1,6.2-38.4-0.6c-11-6.7-17.7-20.5-14-33.2C17.4,38.3,33.9,25,48.3,27.2C49.9,27.4,50.6,25.2,49,24.6L49,24.6z" fill="#ffd312"></path></g></g><g fill="#ffd312"><g fill="#ffd312"><path d="M47.6,28.3c-1.1,5.3-1.3,10.9-1.5,16.3c-0.2,4.5-1.5,10.2,0.3,14.4c0.2,0.4,0.9,0.5,1.2,0.2c0.3-0.4,0.6-0.7,0.9-1.1    c0.5-0.6-0.3-1.4-0.9-0.9c-0.4,0.3-0.7,0.6-1.1,0.9c0.4,0.3,0.8,0.6,1.2,0.9c2.2-3.8,1.6-9.2,1.9-13.5c0.5-5.6,1.3-11.2,1.3-16.8    C50.9,26.9,48,26.4,47.6,28.3L47.6,28.3z" fill="#ffd312"></path></g></g><g fill="#ffd312"><g fill="#ffd312"><path d="M48.6,60.3c5.3-1.5,10.6-3.6,15.7-5.7c4-1.6,9-2.9,12-6c-0.4-0.4-0.9-0.9-1.3-1.3c-0.5,0.4-1,0.8-1.5,1.2    c-0.5,0.4,0,1.2,0.6,1c0.6-0.2,1.2-0.4,1.8-0.7c1-0.4,0.8-1.8-0.2-1.8c-4.7-0.2-10,2.5-14.4,4.1c-4.8,1.7-9.6,3.5-14.2,5.8    C45.2,57.7,46.6,60.8,48.6,60.3L48.6,60.3z" fill="#ffd312"></path></g></g><g fill="#ffd312"><g fill="#ffd312"><path d="M62,11.2c-2.4,8.6-4.6,18.9-2.8,27.8c0.1,0.7,1.1,0.6,1.3,0c2.8-8.5,3.4-18.1,4.9-26.8C65.9,10,62.6,9,62,11.2L62,11.2z" fill="#ffd312"></path></g></g><g fill="#ffd312"><g fill="#ffd312"><path d="M60.4,41.9c5.2-1,10.2-3.5,14.9-5.9c4.1-2,9-4.1,11.5-8.2c0.3-0.6-0.1-1.4-0.8-1.4c-4.4,0.2-8.5,3-12.4,4.9    c-4.8,2.4-10,4.3-14.7,7C57,39.6,58.3,42.3,60.4,41.9L60.4,41.9z" fill="#ffd312"></path></g></g><g fill="#ffd312"><g fill="#ffd312"><path d="M65.1,9.2c9.9-0.4,17.3,4,22,12.6c1.5,2.7,6.3,0.9,5.2-2.2C88.1,9.1,75.5,2.4,64.6,5.6C62.6,6.2,62.9,9.3,65.1,9.2    L65.1,9.2z" fill="#ffd312"></path></g></g><g fill="#ffd312"><g fill="#ffd312"><path d="M35.6,34.2c-17.1,4.4-21,31.2-10.1,43.2c5,5.6,14.6,11.6,22.3,10.7c8.6-0.9,18.3-7.7,23.7-14.1c0.4-0.5-0.3-1.3-0.8-0.8    C66,78.7,59.3,83,52.5,85.3c-8,2.7-17-2.9-23.1-7.9c-6.9-5.7-8.6-16.1-6.9-24.5c1.7-8.2,6.7-13.1,13.7-17.2    C37,35.2,36.5,33.9,35.6,34.2L35.6,34.2z" fill="#F6D33C"></path></g></g><g fill="#ffd312"><g fill="#ffd312"><path d="M70.7,64.8c0.4-0.7,0.7-1.5,0.4-2.3c-0.3-0.7-1-1-1.8-1.2c-0.8-0.1-1.7,0-2.3,0.6c-0.7,0.7-0.9,1.7-0.5,2.6    c0.3,0.8,1,1.3,1.8,1.4C69.2,66,70.3,65.6,70.7,64.8L70.7,64.8z" fill="#ffd312"></path></g></g><g fill="#ffd312"><g fill="#ffd312"><path d="M58.1,77.1c0.8-0.6,1.1-1.7,0.8-2.7c-0.2-0.9-1.2-1.7-2.1-1.6c-0.2,0-0.5,0.1-0.7,0.1c-0.3,0-0.3,0,0.3,0    c-1.8-0.1-2.9,1.9-2.3,3.4c0.3,0.7,0.9,1.2,1.6,1.4C56.6,78,57.4,77.7,58.1,77.1L58.1,77.1z" fill="#ffd312"></path></g></g><g fill="#ffd312"><g fill="#ffd312"><path d="M29.9,67.8c0.9-0.2,1.8-0.8,2.3-1.6c0.5-0.8,0.4-1.7,0.1-2.6c-0.2-0.5-0.9-0.7-1.4-0.8c0.6,0.1,0.3,0,0.2,0    c-0.2,0-0.5-0.1-0.7-0.1c-0.7,0.1-0.8,0.1-0.4,0.1c0.6-0.1-0.5,0.1-0.7,0.1c-0.2,0-0.1,0,0.3,0c-0.1,0-0.2,0-0.3,0    c-1.5-0.1-2.7,1.5-2.5,2.8C27,67.2,28.4,68.1,29.9,67.8L29.9,67.8z" fill="#ffd312"></path></g></g><g fill="#ffd312"><g fill="#ffd312"><path d="M39.2,52.4c3.1,0,3.1-4.8,0-4.8C36.2,47.6,36.1,52.4,39.2,52.4L39.2,52.4z" fill="#ffd312"></path></g></g><g fill="#ffd312"><g fill="#ffd312"><path d="M69.3,18.8c3,0,3-4.7,0-4.7C66.3,14.1,66.3,18.8,69.3,18.8L69.3,18.8z" fill="#ffd312"></path></g></g><g fill="#ffd312"><g fill="#ffd312"><path d="M73.4,27c3,0,3-4.7,0-4.7C70.4,22.4,70.4,27,73.4,27L73.4,27z" fill="#ffd312"></path></g></g><g fill="#ffd312"><g fill="#ffd312"><path d="M43.9,68.4c2.9,0,2.9-4.5,0-4.5C41.1,63.9,41.1,68.4,43.9,68.4L43.9,68.4z" fill="#ffd312"></path></g></g></svg>